<svg xmlns="http://www.w3.org/2000/svg" width="39" height="27" viewBox="0 0 39 27" fill="none">
  <path d="M26.2725 23.8437C26.2725 24.2187 26.5225 24.4687 26.8975 24.4687H34.46C34.335 24.9062 34.1475 25.3438 33.8975 25.6562C33.5225 26.0937 33.0225 26.3437 32.5225 26.3437H2.58496C1.64746 26.3437 0.834961 25.5312 0.584961 24.4687H8.14746C8.52246 24.4687 8.77246 24.2187 8.77246 23.8437V21.5313C10.835 22.6563 13.1475 23.2187 15.5225 23.2187H19.5225C21.71 23.2187 23.7725 22.7187 25.71 21.7812C25.8975 21.6562 26.085 21.5937 26.2725 21.4687V23.8437ZM32.5225 3.46875V8.90625C32.5225 10.9688 32.085 12.9063 31.1475 14.6563C29.8975 17.2188 27.71 19.3438 25.1475 20.5938C23.3975 21.4688 21.46 21.9062 19.5225 21.9062H15.5225C13.085 21.9062 10.71 21.2187 8.58496 19.9062C4.77246 17.5312 2.52246 13.4063 2.52246 8.90625V0.78125C2.52246 0.71875 2.58496 0.65625 2.64746 0.65625H32.21C32.3975 0.65625 32.5225 0.78125 32.5225 0.96875V2.40625M38.2725 8.03125C37.835 10.7187 36.835 12.5938 35.335 13.5938C34.335 14.2813 33.2725 14.4687 32.6475 14.4687C33.3975 12.7187 33.7725 10.9062 33.7725 8.96875V3.40625C34.7725 3.21875 36.5225 3.09375 37.585 4.09375C38.3975 4.84375 38.585 6.15625 38.2725 8.03125Z" fill="black"/>
</svg>