<svg xmlns="http://www.w3.org/2000/svg" width="60" height="60" viewBox="0 0 60 60" fill="none">
  <path fill-rule="evenodd" clip-rule="evenodd" d="M50.0002 12.5V17.5L41.9534 17.4997C46.1812 21.2096 48.7723 26.6392 48.7674 32.5551C48.7597 41.7168 42.5281 49.7017 33.6429 51.9351C24.7577 54.1685 15.491 50.0791 11.1523 42.01C6.81359 33.9409 8.5123 23.9555 15.2752 17.775C16.2306 19.2952 17.5778 20.5301 19.1752 21.35C15.7392 24.1258 13.7447 28.3079 13.7502 32.725C13.8731 40.9213 20.553 47.5009 28.7502 47.5C36.2586 47.6237 42.6613 42.0865 43.6219 34.6388C44.3396 29.0744 41.8483 23.7708 37.5005 20.6997L37.5002 30H32.5002V12.5H50.0002ZM23.7502 7.5C26.5116 7.5 28.7502 9.73858 28.7502 12.5C28.7502 15.2614 26.5116 17.5 23.7502 17.5C20.9887 17.5 18.7502 15.2614 18.7502 12.5C18.7502 9.73858 20.9887 7.5 23.7502 7.5Z" fill="white"/>
</svg>