<svg xmlns="http://www.w3.org/2000/svg" width="60" height="60" viewBox="0 0 60 60" fill="none">
  <path fill-rule="evenodd" clip-rule="evenodd" d="M30 55C43.807 55 55 43.807 55 30C55 16.1929 43.807 5 30 5C16.1929 5 5 16.1929 5 30C5 43.807 16.1929 55 30 55ZM21.4645 21.4645C20 22.9289 20 25.286 20 30C20 34.714 20 37.071 21.4645 38.5355C22.9289 40 25.286 40 30 40C34.714 40 37.071 40 38.5355 38.5355C40 37.071 40 34.714 40 30C40 25.286 40 22.9289 38.5355 21.4645C37.071 20 34.714 20 30 20C25.286 20 22.9289 20 21.4645 21.4645Z" fill="white"/>
</svg>