<svg xmlns="http://www.w3.org/2000/svg" width="50" height="43" viewBox="0 0 50 43" fill="none">
<path fill-rule="evenodd" clip-rule="evenodd" d="M32.5 0.25L35 2.75L34.9999 7.75H50V42.75H0V7.75H15V2.75L17.5 0.25H32.5ZM4.99998 26.1408L5 37.75H45L45.0001 26.1408C40.0049 27.57 35.0041 28.464 30.0001 28.8214L30 32.75H20L20 28.8214C14.9959 28.464 9.99511 27.57 4.99998 26.1408ZM45 12.75H5L5.00002 20.9258C11.6764 22.9766 18.3407 24 25 24C31.6594 24 38.3237 22.9765 45.0001 20.9257L45 12.75ZM30 5.25H20V7.75H30V5.25Z" fill="black"/>
</svg>